<svg xmlns="http://www.w3.org/2000/svg" xmlns:xlink="http://www.w3.org/1999/xlink" width="798.449" height="137.832" viewBox="0 0 798.449 137.832">
  <defs>
    <linearGradient id="linear-gradient" y1="0.5" x2="1" y2="0.5" gradientUnits="objectBoundingBox">
      <stop offset="0" stop-color="#00abf0"/>
      <stop offset="1" stop-color="#112e42"/>
    </linearGradient>
    <linearGradient id="linear-gradient-2" y1="0.5" x2="1" y2="0.5" gradientUnits="objectBoundingBox">
      <stop offset="0" stop-color="#112e42"/>
      <stop offset="1" stop-color="#00abf0"/>
    </linearGradient>
  </defs>
  <g id="Group_13299" data-name="Group 13299" transform="translate(23668.449 -16455.111)">
    <g id="Group_13162" data-name="Group 13162" transform="translate(51.167 477.777)">
      <g id="Group_13160" data-name="Group 13160" transform="translate(-23458.73 15117.32) rotate(8)">
        <path id="Path_32867" data-name="Path 32867" d="M246.689,320.717h0l0,0a14.6,14.6,0,0,0,.023-18.213c0-.006,0-.011.006-.017l-7.886-10.207L234.409,298l-33.351,43.171c-1.542,1.842-.922,3.7,1.542,3.7h23.136a4.075,4.075,0,0,0,3.861-2.157l23.86-30.7Z" transform="matrix(0.995, -0.105, 0.105, 0.995, 366.406, 599.18)" fill="url(#linear-gradient)"/>
        <path id="Path_32868" data-name="Path 32868" d="M275.209,308.2a14.6,14.6,0,0,1-.024,18.213l0,0,4.432-5.7,0,0a14.6,14.6,0,0,0,.023-18.213c0-.006,0-.011.006-.017l-7.886-10.207L267.343,298l7.871,10.189Z" transform="translate(328.814 607.73) rotate(-7)" fill="#112e42"/>
      </g>
      <path id="Path_32869" data-name="Path 32869" d="M230.058,191.587c-1.076-1.385-2.009-2.314-4.161-2.314H202.6c-2.464,0-3.084,2-1.542,3.855l1.435,1.845,36.34,46.758-.006.008,7.886,10.207c0,.006,0,.011-.006.017a14.6,14.6,0,0,1-.023,18.213l0,0h0l6.767-8.708,15.341-19.74Z" transform="translate(-23189.963 15820.564)" fill="url(#linear-gradient-2)"/>
    </g>
    <g id="Group_13163" data-name="Group 13163" transform="translate(-170.843 459.464)">
      <g id="Group_13159" data-name="Group 13159" transform="matrix(0.999, 0.035, -0.035, 0.999, -23575.094, 15190.116)">
        <path id="Path_32867-2" data-name="Path 32867" d="M246.689,320.717h0l0,0a14.6,14.6,0,0,0,.023-18.213c0-.006,0-.011.006-.017l-7.886-10.207L234.409,298l-33.351,43.171c-1.542,1.842-.922,3.7,1.542,3.7h23.136a4.075,4.075,0,0,0,3.861-2.157l23.86-30.7Z" transform="matrix(-1, 0.017, -0.017, -1, 381.287, 1142.158)" fill="url(#linear-gradient)"/>
        <path id="Path_32868-2" data-name="Path 32868" d="M275.209,308.2a14.6,14.6,0,0,1-.024,18.213l0,0,4.432-5.7,0,0a14.6,14.6,0,0,0,.023-18.213c0-.006,0-.011.006-.017l-7.886-10.207L267.343,298l7.871,10.189Z" transform="matrix(-1, 0.017, -0.017, -1, 414.322, 1141.646)" fill="#112e42"/>
      </g>
      <g id="Group_13161" data-name="Group 13161">
        <path id="Path_32869-2" data-name="Path 32869" d="M230.058,191.587c-1.076-1.385-2.009-2.314-4.161-2.314H202.6c-2.464,0-3.084,2-1.542,3.855l1.435,1.845,36.34,46.758-.006.008,7.886,10.207c0,.006,0,.011-.006.017a14.6,14.6,0,0,1-.023,18.213l0,0h0l6.767-8.708,15.341-19.74Z" transform="matrix(-1, -0.017, 0.017, -1, -23232.154, 16295.311)" fill="url(#linear-gradient-2)"/>
      </g>
    </g>
    <g id="Group_13298" data-name="Group 13298">
      <text id="Frontend_Developer" data-name="Frontend Developer" transform="translate(-23176.793 16573)" fill="#e3e3e3" font-size="22" font-family="LeelawadeeUI, Leelawadee UI" letter-spacing="0.065em"><tspan x="0" y="0">Frontend Developer</tspan></text>
      <g id="Group_13296" data-name="Group 13296" transform="translate(-25971.262 14651)">
        <path id="Path_33308" data-name="Path 33308" d="M2897.208,1724.085a4.663,4.663,0,0,0,1.088,2.469,5.645,5.645,0,0,0,4.18,1.305h5.6v7.44h-7.289a18.714,18.714,0,0,1-5.409-.69,8.049,8.049,0,0,1-3.72-2.3,9.972,9.972,0,0,1-2.148-4.3,22.109,22.109,0,0,1-.6-3.927Zm-8.386-29.289V1685.2h8.208v9.591h11.2v7.824h-11.2v11.991h-8.208V1702.62H2883.3V1694.8Zm8.208,21.975v3h-8.208v-3Z" transform="translate(-286.666 143.996)" fill="#fff" fill-rule="evenodd"/>
        <path id="Path_33305" data-name="Path 33305" d="M2590.739,1724.085a15.706,15.706,0,0,1-3.542,6.228q-4.757,4.986-12.81,4.986h-8.514q-8.133,0-12.849-4.986a15.756,15.756,0,0,1-3.513-6.228h9.084c.108.15.219.3.336.435q2.417,2.875,7.71,2.877h6.981q5.292,0,7.71-2.877c.117-.138.228-.285.336-.435h9.071Zm-16.352-29.289q8.055,0,12.81,5.025,4.656,4.918,4.754,14.79h-8.208q-.075-6.259-2.412-9.078-2.417-2.916-7.71-2.913h-6.981q-5.29,0-7.709,2.913-2.337,2.817-2.413,9.078h-8.211q.1-9.949,4.716-14.829,4.716-4.986,12.849-4.986h8.515Zm17.532,21.975q-.067,1.566-.252,3h-8.316a22.567,22.567,0,0,0,.351-3h8.217Zm-35.364,0a22.6,22.6,0,0,0,.351,3h-8.319c-.123-.957-.208-1.952-.249-3Z" transform="translate(-89 143.996)" fill="#fff" fill-rule="evenodd"/>
        <path id="Path_33304" data-name="Path 33304" d="M2385.4,1724.085V1735.3h-8.13v-11.214Zm39.2-29.289q10.355,0,15.42,4.641t5.061,13.081v2.093h-8.208v-2.093q0-4.834-2.877-7.365t-9.321-2.532h-9.513v11.991h-8.208v-11.991H2386.4q-1,0-1,1.149v10.839h-8.129v-13.524q0-3.6,1.3-4.95t4.371-1.342H2424.6Zm20.48,21.975v3h-8.208v-3Zm-29.916,0v3h-8.208v-3Zm-29.765,0v3h-8.13v-3Zm59.682,7.314V1735.3h-8.208v-11.214Zm-29.916,0V1735.3h-8.208v-11.214Z" transform="translate(0 140)" fill="#fff" fill-rule="evenodd"/>
        <path id="Path_33307" data-name="Path 33307" d="M2199.9,1679.529v9.435h-8.209v-9.435Zm-.078,15.267v19.815h-8.13V1694.8Zm0,21.975v3h-8.13v-3Zm0,7.314V1735.3h-8.13v-11.214Z" transform="translate(382.508 143.996)" fill="#fff" fill-rule="evenodd"/>
        <path id="Path_33283" data-name="Path 33283" d="M2125.815,1724.085V1735.3h-8.13v-11.214Zm0-46.857V1694.8h14.268q10.277,0,15.341,4.68t5.064,13.042v2.093h-8.208v-2.093a9.27,9.27,0,0,0-2.916-7.288q-2.916-2.609-9.282-2.607h-14.268v11.991h-8.13v-37.382h8.13Zm34.674,39.543v3h-8.208v-3Zm-34.674,0v3h-8.13v-3Zm34.674,7.314V1735.3h-8.208v-11.214Z" transform="translate(399.49 143.996)" fill="#fff" fill-rule="evenodd"/>
      </g>
      <g id="Group_13297" data-name="Group 13297" transform="translate(-25972.262 14651.479)">
        <path id="Path_33317" data-name="Path 33317" d="M3253.04,1714.611l-7.9-19.815h8.593l8.016,19.815h-8.71Zm38.818-19.815-8.514,19.815h-8.7l8.547-19.815Zm-9.444,21.975-1.29,3h-8.709l1.293-3Zm-3.144,7.314-11.808,27.477h-8.745l7.593-17.721a8.612,8.612,0,0,1-5.025-1.152,8.074,8.074,0,0,1-2.568-3.834l-1.9-4.77h8.763l.348.858a2.766,2.766,0,0,0,.843,1.381,3.073,3.073,0,0,0,1.611.305h1.074l1.1-2.547h8.715Zm-24.174-4.317-1.194-3h8.72l1.213,3Z" transform="translate(-264.643 139.996)" fill="#00abf0" stroke="#112e42" stroke-width="1" fill-rule="evenodd"/>
        <path id="Path_33309" data-name="Path 33309" d="M3036.879,1714.611l8.553-19.815h8.744l-8.583,19.815Zm-23.131-19.815,8.227,19.815h-8.656l-8.16-19.815Zm9.124,21.975,1.245,3h-8.673l-1.236-3h8.664Zm3.036,7.314,1.344,3.237a1.9,1.9,0,0,0,2,1.227,2.105,2.105,0,0,0,2.148-1.227l1.4-3.237h8.7l-2.964,6.843a8.165,8.165,0,0,1-3.567,4.1,12.228,12.228,0,0,1-5.715,1.188,12.059,12.059,0,0,1-5.79-1.227,7.687,7.687,0,0,1-3.414-4.064l-2.817-6.844h8.682Zm8.745-4.317,1.293-3h8.712l-1.3,3Z" transform="translate(-348 143.996)" fill="#00abf0" stroke="#112e42" stroke-width="1" fill-rule="evenodd"/>
        <path id="Path_33272" data-name="Path 33272" d="M2857.97,1724.085a15.535,15.535,0,0,1-.7,3.888,9.53,9.53,0,0,1-2.34,3.873,11.144,11.144,0,0,1-4.143,2.532,17.813,17.813,0,0,1-6.061.921h-23.55v-7.9h23.55a6.319,6.319,0,0,0,4.065-1.035,3.578,3.578,0,0,0,1.146-2.277Zm-1.58-29.289v7.824h-22.4a5.858,5.858,0,0,0-4.064,1.149,4.5,4.5,0,0,0-1.227,3.45,4.25,4.25,0,0,0,1.188,3.261q1.187,1.111,4.563,1.113h9.513a22,22,0,0,1,6.942.921,11.738,11.738,0,0,1,3.9,2.094H2823.29a9.044,9.044,0,0,1-1.962-3.552,16.159,16.159,0,0,1-.612-4.449,11.915,11.915,0,0,1,3.07-8.631q3.069-3.181,10.128-3.183h22.476Zm.221,21.975a8.366,8.366,0,0,1,.778,1.806c.116.39.213.786.3,1.191h-8.662a2.645,2.645,0,0,0-.341-.308,7.315,7.315,0,0,0-4.411-1.036h-9.588a20.9,20.9,0,0,1-6.906-.96,13.958,13.958,0,0,1-1.623-.693h30.456Z" transform="translate(-28.027 143.996)" fill="#00abf0" stroke="#112e42" stroke-width="1" fill-rule="evenodd"/>
        <path id="Path_33311" data-name="Path 33311" d="M2775.4,1724.085V1735.3h-8.13v-11.214Zm19.485-29.289v7.824h-14.268q-5.216,0-5.217,5.217v6.774h-8.13v-8q0-6.14,2.493-8.976t8.475-2.838h16.647Zm-19.485,21.975v3h-8.13v-3Z" transform="translate(-8.209 144.457)" fill="#00abf0" stroke="#112e42" stroke-width="1" fill-rule="evenodd"/>
        <path id="Path_33315" data-name="Path 33315" d="M2484.342,1724.085V1735.3h-8.13v-11.214Zm14.267-29.289q10.359,0,15.381,4.641t5.025,13.081v2.093h-8.208v-2.093q0-4.834-2.877-7.365t-9.321-2.532h-13.272c-.666,0-1,.383-1,1.149v10.839h-8.13v-13.524q0-3.6,1.3-4.95t4.374-1.342h16.722Zm20.406,21.975v3h-8.208v-3Zm-34.674,0v3h-8.13v-3Zm34.674,7.314V1735.3h-8.208v-11.214Z" transform="translate(408.564 145.152)" fill="#00abf0" stroke="#112e42" stroke-width="1" fill-rule="evenodd"/>
        <path id="Path_33313" data-name="Path 33313" d="M2125.815,1724.085V1735.3h-8.13v-11.214Zm0-46.857V1694.8h14.268q10.277,0,15.341,4.68t5.064,13.042v2.093h-8.208v-2.093a9.27,9.27,0,0,0-2.916-7.288q-2.916-2.609-9.282-2.607h-14.268v11.991h-8.13v-37.382h8.13Zm34.674,39.543v3h-8.208v-3Zm-34.674,0v3h-8.13v-3Zm34.674,7.314V1735.3h-8.208v-11.214Z" transform="translate(718.273 145.148)" fill="#00abf0" stroke="#112e42" stroke-width="1" fill-rule="evenodd"/>
        <path id="Path_33316" data-name="Path 33316" d="M1935.15,1724.085a5.226,5.226,0,0,0,1.047,1.74q1.417,1.575,4.794,1.572h24.777v7.9h-24.777a18.465,18.465,0,0,1-6.483-1,11.591,11.591,0,0,1-4.371-2.8,10.7,10.7,0,0,1-2.493-4.218,16.235,16.235,0,0,1-.657-3.2h8.163Zm18.957-29.289q7.213,0,10.434,3.261t3.222,9.168a12.289,12.289,0,0,1-2.067,7.389h-38.823v-6.468a17.626,17.626,0,0,1,.768-5.3,10.662,10.662,0,0,1,2.493-4.257,11.6,11.6,0,0,1,4.371-2.8,18.515,18.515,0,0,1,6.483-.995h13.119Zm-19.332,17.721H1953.8q3.3,0,4.641-1.3a4.7,4.7,0,0,0,1.344-3.528A4.976,4.976,0,0,0,1958.4,1704a5.978,5.978,0,0,0-4.371-1.38h-13.041q-3.375,0-4.794,1.611a5.824,5.824,0,0,0-1.42,3.99v4.293Zm28.686,4.254q-3.218,2.11-9.432,2.112h-19.254v.885h-7.9v-3Z" transform="translate(1006.721 145.152)" fill="#00abf0" stroke="#112e42" stroke-width="1" fill-rule="evenodd"/>
        <path id="Path_33310" data-name="Path 33310" d="M1684.305,1724.085v3.084a17.378,17.378,0,0,1-.345,3.759,5.159,5.159,0,0,1-1.266,2.493,5.55,5.55,0,0,1-2.568,1.419,15.918,15.918,0,0,1-4.182.462H1657q-7.209,0-10.4-3.3a11.97,11.97,0,0,1-3.149-7.917h8.145a4.427,4.427,0,0,0,1.107,1.971q1.3,1.341,4.371,1.341H1674.1q2.223,0,2.226-2.073v-1.242h7.977ZM1670.19,1694.8a18.588,18.588,0,0,1,6.444,1,11.544,11.544,0,0,1,4.41,2.8,10.662,10.662,0,0,1,2.493,4.257,17.607,17.607,0,0,1,.768,5.3v6.468h-38.043l.225-.216a10.783,10.783,0,0,1,4.218-2.3,21.8,21.8,0,0,1,6.366-.807h19.254v-3.069a5.828,5.828,0,0,0-1.42-3.99q-1.418-1.611-4.794-1.611h-24.24V1694.8h24.319Zm14.115,21.975v3h-7.977v-2.037h-19.1q-3.222,0-4.524,1.266a3.9,3.9,0,0,0-.618.771H1643.7a12.544,12.544,0,0,1,.45-1.728,9.184,9.184,0,0,1,.537-1.268h39.618Z" transform="translate(1068.738 144.914)" fill="#00abf0" stroke="#112e42" stroke-width="1" fill-rule="evenodd"/>
      </g>
      <g id="_2706590626848" data-name=" 2706590626848" transform="translate(-21361.012 17570.363) rotate(180)">
        <g id="Group_13290" data-name="Group 13290" transform="translate(1645.472 1016.253)">
          <g id="Group_13289" data-name="Group 13289" transform="translate(0)">
            <path id="Path_33299" data-name="Path 33299" d="M1976.825,1112.121H1652.534v-1.2h321.928v-90.13H2116.22v1.2h-139.4Z" transform="translate(-1652.534 -1020.792)" fill="#fff"/>
          </g>
        </g>
        <g id="Group_13291" data-name="Group 13291" transform="translate(2107.482 1015.176)">
          <path id="Path_33300" data-name="Path 33300" d="M2872.409,1015.176a1.676,1.676,0,1,1-1.677,1.676A1.676,1.676,0,0,1,2872.409,1015.176Z" transform="translate(-2870.733 -1015.176)" fill="#fff" fill-rule="evenodd"/>
        </g>
        <g id="Group_13292" data-name="Group 13292" transform="translate(1643.796 1105.306)">
          <path id="Path_33301" data-name="Path 33301" d="M1645.472,1485.192a1.676,1.676,0,1,1-1.676,1.677A1.677,1.677,0,0,1,1645.472,1485.192Z" transform="translate(-1643.796 -1485.192)" fill="#fff" fill-rule="evenodd"/>
        </g>
      </g>
    </g>
  </g>
</svg>
