<svg xmlns="http://www.w3.org/2000/svg" version="1.1" xmlns:xlink="http://www.w3.org/1999/xlink" xmlns:svgjs="http://svgjs.dev/svgjs" width="128" height="128" viewBox="0 0 128 128"><g transform="matrix(0.8046875,0,0,0.8046875,12.41184074821259,12.814873242367177)"><svg viewBox="0 0 98 98" data-background-color="#2f2d51" preserveAspectRatio="xMidYMid meet" height="127" width="128" xmlns="http://www.w3.org/2000/svg" xmlns:xlink="http://www.w3.org/1999/xlink"><g id="tight-bounds" transform="matrix(1,0,0,1,0.08387967645792571,0.08387967645792571)"><svg viewBox="0 0 97.83224064708415 97.83224064708415" height="97.83224064708415" width="97.83224064708415"><g><svg></svg></g><g><svg viewBox="0 0 97.83224064708415 97.83224064708415" height="97.83224064708415" width="97.83224064708415"><g><path d="M0 48.916c0-27.016 21.9-48.916 48.916-48.916 27.016 0 48.916 21.9 48.916 48.916 0 27.016-21.9 48.916-48.916 48.916-27.016 0-48.916-21.9-48.916-48.916zM48.916 94.533c25.194 0 45.617-20.423 45.617-45.617 0-25.194-20.423-45.617-45.617-45.617-25.194 0-45.617 20.423-45.617 45.617 0 25.194 20.423 45.617 45.617 45.617z" data-fill-palette-color="tertiary" fill="#ffc78b" stroke="transparent"></path><ellipse rx="46.95947551060039" ry="46.95947551060039" cx="48.916120323542074" cy="48.916120323542074" fill="#ffc78b" stroke="transparent" stroke-width="0" fill-opacity="1" data-fill-palette-color="tertiary"></ellipse></g><g transform="matrix(1,0,0,1,23.47539391502934,30.624436613251458)"><svg viewBox="0 0 50.88145281702547 36.58336742058123" height="36.58336742058123" width="50.88145281702547"><g><svg viewBox="0 0 50.88145281702547 36.58336742058123" height="36.58336742058123" width="50.88145281702547"><g><svg viewBox="0 0 50.88145281702547 36.58336742058123" height="36.58336742058123" width="50.88145281702547"><g id="textblocktransform"><svg viewBox="0 0 50.88145281702547 36.58336742058123" height="36.58336742058123" width="50.88145281702547" id="textblock"><g><svg viewBox="0 0 50.88145281702547 36.58336742058123" height="36.58336742058123" width="50.88145281702547"><g><svg viewBox="0 0 50.88145281702547 36.58336742058123" height="36.58336742058123" width="50.88145281702547"><g><svg xmlns="http://www.w3.org/2000/svg" xmlns:xlink="http://www.w3.org/1999/xlink" version="1.1" x="0" y="0" viewBox="9.666 21.00033765356684 80.668 57.999662346433155" enable-background="new 0 0 100 100" xml:space="preserve" height="36.58336742058123" width="50.88145281702547" class="icon-icon-0" data-fill-palette-color="quaternary" id="icon-0"><path d="M32.951 28.716c-0.781-0.781-2.047-0.781-2.828 0l-19.871 19.87C9.877 48.961 9.666 49.47 9.666 50s0.211 1.039 0.586 1.414l19.871 19.87c0.391 0.391 0.902 0.586 1.414 0.586s1.023-0.195 1.414-0.586c0.781-0.781 0.781-2.047 0-2.828L14.494 50l18.457-18.456C33.732 30.763 33.732 29.497 32.951 28.716zM89.748 48.586l-19.871-19.87c-0.781-0.781-2.047-0.781-2.828 0s-0.781 2.047 0 2.828L85.506 50 67.049 68.456c-0.781 0.781-0.781 2.047 0 2.828 0.391 0.391 0.902 0.586 1.414 0.586s1.023-0.195 1.414-0.586l19.871-19.87c0.375-0.375 0.586-0.884 0.586-1.414S90.123 48.961 89.748 48.586zM63.208 21.182c-1.002-0.458-2.191-0.021-2.651 0.985l-24.75 54c-0.46 1.004-0.02 2.19 0.985 2.651C37.062 78.941 37.345 79 37.624 79c0.758 0 1.482-0.433 1.819-1.167l24.75-54C64.653 22.829 64.213 21.643 63.208 21.182z" fill="#2f2d51" data-fill-palette-color="quaternary"></path></svg></g></svg></g></svg></g></svg></g></svg></g><g></g></svg></g></svg></g></svg></g><defs></defs></svg><rect width="97.83224064708415" height="97.83224064708415" fill="none" stroke="none" visibility="hidden"></rect></g></svg></g></svg>