<svg xmlns="http://www.w3.org/2000/svg" version="1.1" xmlns:xlink="http://www.w3.org/1999/xlink" xmlns:svgjs="http://svgjs.dev/svgjs" width="1500" height="356" viewBox="0 0 1500 356"><g transform="matrix(1,0,0,1,-0.9090049813813721,0.12006281090367565)"><svg viewBox="0 0 396 94" data-background-color="#2f2d51" preserveAspectRatio="xMidYMid meet" height="356" width="1500" xmlns="http://www.w3.org/2000/svg" xmlns:xlink="http://www.w3.org/1999/xlink"><g id="tight-bounds" transform="matrix(1,0,0,1,0.23997731508467268,-0.031701978159958344)"><svg viewBox="0 0 395.52 94.06340395631993" height="94.06340395631993" width="395.52"><g><svg viewBox="0 0 395.52 94.06340395631993" height="94.06340395631993" width="395.52"><g><svg viewBox="0 0 697.4149913708383 165.86071009938445" height="94.06340395631993" width="395.52"><g transform="matrix(1,0,0,1,301.8949913708383,27.367861716297114)"><svg viewBox="0 0 395.52 111.12498666679022" height="111.12498666679022" width="395.52"><g id="textblocktransform"><svg viewBox="0 0 395.52 111.12498666679022" height="111.12498666679022" width="395.52" id="textblock"><g><svg viewBox="0 0 395.52 86.22477469270603" height="86.22477469270603" width="395.52"><path d="M394.594 18.494C392.735 9.543 387.435 7.055 387.435 7.055 371.165-2.163 350.86-0.176 332.619 1.148 300.414 1.202 268.339 3.171 236.208 4.227 168.767 4.388 100.749 1.739 33.643 8.273 27.339 10.277-6.54 8.666 1.121 19.639 3.129 24.204 10.456 29.269 10.232 33.458 11.236 34.192 12.631 32.509 13.226 33.566 15.309 36.412 18.711 35.069 21.501 36.752 17.614 41.245 20.403 44.986 23.062 48.906 18.377 49.926 12.371 49.443 9.675 52.826 9.396 55.278 7.89 54.813 6.235 54.706 5.026 54.634 2.59 54.903 2.999 55.672 4.394 58.304-1.594 59.825 2.162 62.403-0.422 65.195 3.948 67.612 3.353 70.637 3.278 71.245 3.687 71.765 4.338 71.908 7.22 72.677 3.018 74.181 3.464 75.81 33.029 86.944 65.104 79.247 95.394 84.366 103.259 80.786 97.346 85.637 100.489 84.885 102.943 84.008 104.728 87.642 107.499 85.584 107.927 84.993 107.276 83.597 108.8 83.865 109.6 84.008 110.307 83.973 110.418 83.149 110.586 81.914 109.117 82.684 108.726 82.039 112.947 78.781 111.906 86.532 115.866 86.21 115.68 85.261 114.528 83.901 116.889 84.08 119.232 82.719 119.306 81.592 121.389 84.653 121.463 85.315 121.835 85.78 122.43 86.103 128.938 82.773 135.409 87.284 142.233 85.78 146.417 84.134 150.433 86.675 154.672 86.049 156.16 85.548 157.666 84.653 159.098 86.156 176.632 86.479 195.319 85.136 211.943 86.21 256.364 84.205 303.836 87.033 350.674 84.384 361.719 83.364 373.192 81.914 383.958 80.75 383.958 80.75 392.679 77.564 392.679 63.244S394.538 50.714 394.817 39.311C395.096 27.909 396.398 27.444 394.538 18.494Z" opacity="1" fill="#ffffff" data-fill-palette-color="tertiary"></path><g transform="matrix(1,0,0,1,55.76832,26.06856114666666)"><svg width="283.98335999999995" viewBox="2.37 -35.82 373.6 44.85" height="34.08765239937271" data-palette-color="#2f2d51"><path d="M13.16-32.4L13.16 0 8.86 0 2.37-6.47 2.37-25.93 8.86-32.4 13.16-32.4ZM22.05-25.93L14.87-25.93 14.87-32.4 26.37-32.4 32.84-25.93 32.84-19.41 22.05-19.41 22.05-25.93ZM26.37 0L14.87 0 14.87-6.47 22.05-6.47 22.05-11.21 32.84-11.21 32.84-6.47 26.37 0ZM66.6-19.46L66.6-6.47 60.13 0 52.9 0 52.9-6.05 55.59-6.05 55.59-19.46 52.9-19.46 52.9-25.93 60.13-25.93 66.6-19.46ZM48.39-19.46L48.39-6.05 51.19-6.05 51.19 0 43.94 0 37.47-6.47 37.47-19.46 43.94-25.93 51.19-25.93 51.19-19.46 48.39-19.46ZM88.94-35.82L99.73-35.82 99.73 0 88.94 0 88.94-35.82ZM82.03-19.46L82.03-6.05 87.23-6.05 87.23-2.56 84.66 0 77.07 0 71.24-5.83 71.24-20.09 77.07-25.93 87.23-25.93 87.23-19.46 82.03-19.46ZM115.37-25.93L115.37 0 111.05 0 104.58-6.47 104.58-19.46 111.05-25.93 115.37-25.93ZM132.71-10.4L117.08-10.4 117.08-14.92 122.77-14.92 122.77-19.46 117.08-19.46 117.08-25.93 126.24-25.93 132.71-19.46 132.71-10.4ZM128.36 0L117.08 0 117.08-6.05 131.58-6.05 131.58-3.25 128.36 0ZM150.23-35.82L161.02-35.82 161.02 0 150.23 0 150.23-35.82ZM167.57-6.05L167.57-19.46 162.73-19.46 162.73-22.73 165.91-25.93 171.81-25.93 178.31-19.46 178.31-6.47 171.81 0 162.73 0 162.73-6.05 167.57-6.05ZM210.56-25.93L197.4 9.03 187.05 9.03 200.18-25.93 210.56-25.93ZM189.63-2.17L180.06-25.93 190.83-25.93 194.47-15.38 189.63-2.17ZM236.8 0L226.01 0 226.01-32.4 236.8-32.4 236.8 0ZM246.61-25.93L238.51-25.93 238.51-32.4 250.83-32.4 257.33-25.93 257.33-16.21 252.35-11.23 252.01-11.91 241.87-10.57 242.27-9.72 238.51-9.72 238.51-15.99 246.61-15.99 246.61-25.93ZM252.35-11.23L258.43 0 246.9 0 242.27-9.72 250.83-9.72 252.35-11.23ZM289.6 0L279.05 0 279.05-19.46 263.7-19.46 263.7-22.68 266.95-25.93 283.13-25.93 289.6-19.46 289.6 0ZM265.87-15.09L277.35-15.09 277.35-10.6 271.78-10.6 271.78-6.05 277.35-6.05 277.35-3.2 274.12 0 265.87 0 261.53-4.27 261.53-10.77 265.87-15.09ZM294.46 0L294.46-35.82 305.25-35.82 305.25 0 294.46 0ZM311.72 0L311.72-19.46 306.96-19.46 306.96-22.73 310.13-25.93 316.04-25.93 322.53-19.46 322.53 0 311.72 0ZM344.48-25.93L355.27-25.93 355.27 0 344.48 0 344.48-25.93ZM337.96-25.93L337.96-6.47 342.77-6.47 342.77-3.25 339.65 0 333.66 0 327.17-6.47 327.17-25.93 337.96-25.93ZM375.97-6.47L375.97 0 366.4 0 360.35-6.05 360.35-35.82 371.14-35.82 371.14-6.47 375.97-6.47Z" opacity="1" transform="matrix(1,0,0,1,0,0)" fill="#2f2d51" class="wordmark-text-0" data-fill-palette-color="quaternary" id="text-0"></path></svg></g></svg></g><g transform="matrix(1,0,0,1,0,94.27205132054034)"><svg viewBox="0 0 395.52 16.85293534624987" height="16.85293534624987" width="395.52"><g transform="matrix(1,0,0,1,0,0)"><svg width="395.52" viewBox="3.61 -37.5 1118.44 47.66" height="16.85293534624987" data-palette-color="#ffc78b"><path d="M24.39-20.75L24.39-15.87 9.79-15.87 9.79-4.93 26.86-4.93 26.86 0 3.61 0 3.61-35.55 26.68-35.55 26.68-30.57 9.79-30.57 9.79-20.75 24.39-20.75ZM43.39-37.5L43.39 0 37.46 0 37.46-37.5 43.39-37.5ZM67.24 0.49L67.24 0.49Q61.61 0.49 58.1-3.06 54.6-6.62 54.6-12.52L54.6-12.52 54.6-13.26Q54.6-17.21 56.12-20.32 57.65-23.44 60.41-25.17 63.17-26.9 66.56-26.9L66.56-26.9Q71.96-26.9 74.9-23.46 77.84-20.02 77.84-13.72L77.84-13.72 77.84-11.33 60.58-11.33Q60.85-8.06 62.76-6.15 64.68-4.25 67.59-4.25L67.59-4.25Q71.66-4.25 74.23-7.54L74.23-7.54 77.43-4.49Q75.84-2.12 73.19-0.82 70.54 0.49 67.24 0.49ZM66.54-22.14L66.54-22.14Q64.1-22.14 62.59-20.43 61.09-18.73 60.68-15.67L60.68-15.67 71.98-15.67 71.98-16.11Q71.79-19.09 70.39-20.62 69-22.14 66.54-22.14ZM91.54-26.42L97.2-7.52 102.8-26.42 108.92-26.42 99.77 0 94.62 0 85.39-26.42 91.54-26.42ZM139.86 0L133.81 0Q133.42-0.76 133.12-2.47L133.12-2.47Q130.29 0.49 126.19 0.49L126.19 0.49Q122.21 0.49 119.69-1.78 117.18-4.05 117.18-7.4L117.18-7.4Q117.18-11.62 120.32-13.88 123.45-16.14 129.29-16.14L129.29-16.14 132.93-16.14 132.93-17.87Q132.93-19.92 131.78-21.15 130.63-22.39 128.29-22.39L128.29-22.39Q126.26-22.39 124.97-21.37 123.67-20.36 123.67-18.8L123.67-18.8 117.74-18.8Q117.74-20.97 119.18-22.86 120.62-24.76 123.1-25.83 125.58-26.9 128.63-26.9L128.63-26.9Q133.27-26.9 136.03-24.57 138.79-22.24 138.86-18.02L138.86-18.02 138.86-6.1Q138.86-2.54 139.86-0.42L139.86-0.42 139.86 0ZM127.29-4.27L127.29-4.27Q129.04-4.27 130.6-5.13 132.15-5.98 132.93-7.42L132.93-7.42 132.93-12.4 129.73-12.4Q126.43-12.4 124.77-11.25 123.11-10.11 123.11-8.01L123.11-8.01Q123.11-6.3 124.25-5.29 125.38-4.27 127.29-4.27ZM152.34-32.84L158.27-32.84 158.27-26.42 162.94-26.42 162.94-22.02 158.27-22.02 158.27-7.28Q158.27-5.76 158.87-5.09 159.47-4.42 161.01-4.42L161.01-4.42Q162.03-4.42 163.08-4.66L163.08-4.66 163.08-0.07Q161.06 0.49 159.18 0.49L159.18 0.49Q152.34 0.49 152.34-7.06L152.34-7.06 152.34-22.02 147.99-22.02 147.99-26.42 152.34-26.42 152.34-32.84ZM184.86 0.49L184.86 0.49Q179.22 0.49 175.72-3.06 172.22-6.62 172.22-12.52L172.22-12.52 172.22-13.26Q172.22-17.21 173.74-20.32 175.27-23.44 178.03-25.17 180.79-26.9 184.18-26.9L184.18-26.9Q189.58-26.9 192.52-23.46 195.46-20.02 195.46-13.72L195.46-13.72 195.46-11.33 178.2-11.33Q178.47-8.06 180.38-6.15 182.3-4.25 185.21-4.25L185.21-4.25Q189.28-4.25 191.85-7.54L191.85-7.54 195.04-4.49Q193.46-2.12 190.81-0.82 188.16 0.49 184.86 0.49ZM184.16-22.14L184.16-22.14Q181.71-22.14 180.21-20.43 178.71-18.73 178.3-15.67L178.3-15.67 189.6-15.67 189.6-16.11Q189.4-19.09 188.01-20.62 186.62-22.14 184.16-22.14ZM228.04-35.55L236.21-18.7 244.39-35.55 251.23-35.55 239.32-13.09 239.32 0 233.11 0 233.11-13.09 221.18-35.55 228.04-35.55ZM257.58-13.16L257.58-13.45Q257.58-17.33 259.12-20.45 260.66-23.56 263.44-25.23 266.22-26.9 269.84-26.9L269.84-26.9Q275.18-26.9 278.52-23.46 281.85-20.02 282.12-14.33L282.12-14.33 282.14-12.94Q282.14-9.03 280.64-5.96 279.14-2.88 276.34-1.2 273.55 0.49 269.89 0.49L269.89 0.49Q264.3 0.49 260.94-3.23 257.58-6.96 257.58-13.16L257.58-13.16ZM263.51-12.94L263.51-12.94Q263.51-8.86 265.2-6.56 266.88-4.25 269.89-4.25 272.89-4.25 274.56-6.59 276.23-8.94 276.23-13.45L276.23-13.45Q276.23-17.46 274.51-19.8 272.79-22.14 269.84-22.14L269.84-22.14Q266.93-22.14 265.22-19.84 263.51-17.53 263.51-12.94ZM309.07 0L308.93-2.59Q306.32 0.49 301.51 0.49L301.51 0.49Q297.21 0.49 295-2.03 292.79-4.54 292.79-9.3L292.79-9.3 292.79-26.42 298.72-26.42 298.72-9.38Q298.72-4.35 302.9-4.35L302.9-4.35Q307.22-4.35 308.73-7.45L308.73-7.45 308.73-26.42 314.67-26.42 314.67 0 309.07 0ZM340.33-26.56L340.3-21Q339.13-21.19 337.89-21.19L337.89-21.19Q333.81-21.19 332.39-18.07L332.39-18.07 332.39 0 326.46 0 326.46-26.42 332.13-26.42 332.27-23.46Q334.42-26.9 338.23-26.9L338.23-26.9Q339.5-26.9 340.33-26.56L340.33-26.56ZM389.58-11.57L395.73-11.57Q395.2-5.88 391.53-2.7 387.87 0.49 381.79 0.49L381.79 0.49Q377.54 0.49 374.31-1.53 371.07-3.54 369.32-7.25 367.56-10.96 367.49-15.87L367.49-15.87 367.49-19.19Q367.49-24.22 369.27-28.05 371.05-31.88 374.38-33.96 377.72-36.04 382.09-36.04L382.09-36.04Q387.97-36.04 391.56-32.84 395.15-29.64 395.73-23.8L395.73-23.8 389.58-23.8Q389.14-27.64 387.35-29.33 385.55-31.03 382.09-31.03L382.09-31.03Q378.06-31.03 375.9-28.09 373.74-25.15 373.69-19.46L373.69-19.46 373.69-16.31Q373.69-10.55 375.75-7.52 377.81-4.49 381.79-4.49L381.79-4.49Q385.43-4.49 387.26-6.13 389.09-7.76 389.58-11.57L389.58-11.57ZM405.33-13.16L405.33-13.45Q405.33-17.33 406.87-20.45 408.41-23.56 411.19-25.23 413.97-26.9 417.59-26.9L417.59-26.9Q422.93-26.9 426.27-23.46 429.6-20.02 429.87-14.33L429.87-14.33 429.89-12.94Q429.89-9.03 428.39-5.96 426.89-2.88 424.09-1.2 421.3 0.49 417.64 0.49L417.64 0.49Q412.05 0.49 408.69-3.23 405.33-6.96 405.33-13.16L405.33-13.16ZM411.26-12.94L411.26-12.94Q411.26-8.86 412.95-6.56 414.63-4.25 417.64-4.25 420.64-4.25 422.31-6.59 423.98-8.94 423.98-13.45L423.98-13.45Q423.98-17.46 422.26-19.8 420.54-22.14 417.59-22.14L417.59-22.14Q414.68-22.14 412.97-19.84 411.26-17.53 411.26-12.94ZM439.56-13.4L439.56-13.4Q439.56-19.51 442.4-23.21 445.23-26.9 449.99-26.9L449.99-26.9Q454.19-26.9 456.78-23.97L456.78-23.97 456.78-37.5 462.71-37.5 462.71 0 457.34 0 457.04-2.73Q454.38 0.49 449.94 0.49L449.94 0.49Q445.3 0.49 442.43-3.25 439.56-6.98 439.56-13.4ZM445.5-12.89L445.5-12.89Q445.5-8.86 447.05-6.6 448.6-4.35 451.45-4.35L451.45-4.35Q455.09-4.35 456.78-7.59L456.78-7.59 456.78-18.87Q455.14-22.05 451.5-22.05L451.5-22.05Q448.62-22.05 447.06-19.76 445.5-17.48 445.5-12.89ZM486.3 0.49L486.3 0.49Q480.66 0.49 477.15-3.06 473.65-6.62 473.65-12.52L473.65-12.52 473.65-13.26Q473.65-17.21 475.18-20.32 476.7-23.44 479.46-25.17 482.22-26.9 485.61-26.9L485.61-26.9Q491.01-26.9 493.95-23.46 496.89-20.02 496.89-13.72L496.89-13.72 496.89-11.33 479.63-11.33Q479.9-8.06 481.82-6.15 483.73-4.25 486.64-4.25L486.64-4.25Q490.72-4.25 493.28-7.54L493.28-7.54 496.48-4.49Q494.89-2.12 492.24-0.82 489.59 0.49 486.3 0.49ZM485.59-22.14L485.59-22.14Q483.15-22.14 481.65-20.43 480.14-18.73 479.73-15.67L479.73-15.67 491.03-15.67 491.03-16.11Q490.84-19.09 489.45-20.62 488.05-22.14 485.59-22.14ZM508.1 8.01L508.1 8.01 504.9 6.1Q506.32 3.88 506.85 2.23 507.37 0.59 507.39-1.12L507.39-1.12 507.39-5.74 512.74-5.74 512.72-1.46Q512.69 1.12 511.41 3.72 510.13 6.32 508.1 8.01ZM563.58-20.75L563.58-15.87 548.98-15.87 548.98-4.93 566.05-4.93 566.05 0 542.8 0 542.8-35.55 565.88-35.55 565.88-30.57 548.98-30.57 548.98-20.75 563.58-20.75ZM576.26-26.42L581.85-26.42 582.02-23.66Q584.8-26.9 589.63-26.9L589.63-26.9Q594.93-26.9 596.89-22.85L596.89-22.85Q599.77-26.9 604.99-26.9L604.99-26.9Q609.36-26.9 611.5-24.49 613.63-22.07 613.68-17.36L613.68-17.36 613.68 0 607.75 0 607.75-17.19Q607.75-19.7 606.65-20.87 605.55-22.05 603.01-22.05L603.01-22.05Q600.99-22.05 599.7-20.96 598.42-19.87 597.91-18.12L597.91-18.12 597.93 0 592 0 592-17.38Q591.88-22.05 587.24-22.05L587.24-22.05Q583.68-22.05 582.19-19.14L582.19-19.14 582.19 0 576.26 0 576.26-26.42ZM648.67-13.31L648.67-12.94Q648.67-6.81 645.89-3.16 643.11 0.49 638.42 0.49L638.42 0.49Q634.07 0.49 631.46-2.37L631.46-2.37 631.46 10.16 625.53 10.16 625.53-26.42 631-26.42 631.24-23.73Q633.85-26.9 638.34-26.9L638.34-26.9Q643.18-26.9 645.92-23.3 648.67-19.7 648.67-13.31L648.67-13.31ZM642.76-13.45L642.76-13.45Q642.76-17.41 641.19-19.73 639.61-22.05 636.68-22.05L636.68-22.05Q633.05-22.05 631.46-19.04L631.46-19.04 631.46-7.32Q633.07-4.25 636.73-4.25L636.73-4.25Q639.56-4.25 641.16-6.53 642.76-8.81 642.76-13.45ZM658.34-13.16L658.34-13.45Q658.34-17.33 659.88-20.45 661.42-23.56 664.2-25.23 666.99-26.9 670.6-26.9L670.6-26.9Q675.95-26.9 679.28-23.46 682.61-20.02 682.88-14.33L682.88-14.33 682.9-12.94Q682.9-9.03 681.4-5.96 679.9-2.88 677.11-1.2 674.31 0.49 670.65 0.49L670.65 0.49Q665.06 0.49 661.7-3.23 658.34-6.96 658.34-13.16L658.34-13.16ZM664.28-12.94L664.28-12.94Q664.28-8.86 665.96-6.56 667.65-4.25 670.65-4.25 673.65-4.25 675.32-6.59 677-8.94 677-13.45L677-13.45Q677-17.46 675.27-19.8 673.55-22.14 670.6-22.14L670.6-22.14Q667.69-22.14 665.99-19.84 664.28-17.53 664.28-12.94ZM711.4-26.42L716.89-8.18 721.09-26.42 726.88-26.42 719.68 0 714.79 0 709.13-18.14 703.56 0 698.68 0 691.45-26.42 697.24-26.42 701.51-8.37 706.93-26.42 711.4-26.42ZM748.24 0.49L748.24 0.49Q742.6 0.49 739.1-3.06 735.6-6.62 735.6-12.52L735.6-12.52 735.6-13.26Q735.6-17.21 737.12-20.32 738.65-23.44 741.41-25.17 744.17-26.9 747.56-26.9L747.56-26.9Q752.96-26.9 755.9-23.46 758.84-20.02 758.84-13.72L758.84-13.72 758.84-11.33 741.58-11.33Q741.85-8.06 743.76-6.15 745.68-4.25 748.59-4.25L748.59-4.25Q752.66-4.25 755.23-7.54L755.23-7.54 758.43-4.49Q756.84-2.12 754.19-0.82 751.54 0.49 748.24 0.49ZM747.54-22.14L747.54-22.14Q745.1-22.14 743.59-20.43 742.09-18.73 741.68-15.67L741.68-15.67 752.98-15.67 752.98-16.11Q752.79-19.09 751.39-20.62 750-22.14 747.54-22.14ZM783.06-26.56L783.04-21Q781.87-21.19 780.62-21.19L780.62-21.19Q776.54-21.19 775.13-18.07L775.13-18.07 775.13 0 769.2 0 769.2-26.42 774.86-26.42 775.01-23.46Q777.15-26.9 780.96-26.9L780.96-26.9Q782.23-26.9 783.06-26.56L783.06-26.56ZM814.76-35.55L822.94-18.7 831.12-35.55 837.95-35.55 826.04-13.09 826.04 0 819.84 0 819.84-13.09 807.9-35.55 814.76-35.55ZM844.31-13.16L844.31-13.45Q844.31-17.33 845.84-20.45 847.38-23.56 850.17-25.23 852.95-26.9 856.56-26.9L856.56-26.9Q861.91-26.9 865.24-23.46 868.57-20.02 868.84-14.33L868.84-14.33 868.87-12.94Q868.87-9.03 867.37-5.96 865.86-2.88 863.07-1.2 860.27 0.49 856.61 0.49L856.61 0.49Q851.02 0.49 847.66-3.23 844.31-6.96 844.31-13.16L844.31-13.16ZM850.24-12.94L850.24-12.94Q850.24-8.86 851.92-6.56 853.61-4.25 856.61-4.25 859.61-4.25 861.29-6.59 862.96-8.94 862.96-13.45L862.96-13.45Q862.96-17.46 861.24-19.8 859.52-22.14 856.56-22.14L856.56-22.14Q853.66-22.14 851.95-19.84 850.24-17.53 850.24-12.94ZM895.8 0L895.65-2.59Q893.04 0.49 888.23 0.49L888.23 0.49Q883.93 0.49 881.72-2.03 879.52-4.54 879.52-9.3L879.52-9.3 879.52-26.42 885.45-26.42 885.45-9.38Q885.45-4.35 889.62-4.35L889.62-4.35Q893.94-4.35 895.46-7.45L895.46-7.45 895.46-26.42 901.39-26.42 901.39 0 895.8 0ZM927.05-26.56L927.03-21Q925.86-21.19 924.61-21.19L924.61-21.19Q920.54-21.19 919.12-18.07L919.12-18.07 919.12 0 913.19 0 913.19-26.42 918.85-26.42 919-23.46Q921.15-26.9 924.95-26.9L924.95-26.9Q926.22-26.9 927.05-26.56L927.05-26.56ZM975.82-20L975.82-15.06 961.51-15.06 961.51 0 955.33 0 955.33-35.55 977.92-35.55 977.92-30.57 961.51-30.57 961.51-20 975.82-20ZM1003.6 0L1003.46-2.59Q1000.85 0.49 996.04 0.49L996.04 0.49Q991.74 0.49 989.53-2.03 987.32-4.54 987.32-9.3L987.32-9.3 987.32-26.42 993.25-26.42 993.25-9.38Q993.25-4.35 997.43-4.35L997.43-4.35Q1001.75-4.35 1003.26-7.45L1003.26-7.45 1003.26-26.42 1009.2-26.42 1009.2 0 1003.6 0ZM1022.5-32.84L1028.44-32.84 1028.44-26.42 1033.1-26.42 1033.1-22.02 1028.44-22.02 1028.44-7.28Q1028.44-5.76 1029.04-5.09 1029.63-4.42 1031.17-4.42L1031.17-4.42Q1032.2-4.42 1033.25-4.66L1033.25-4.66 1033.25-0.07Q1031.22 0.49 1029.34 0.49L1029.34 0.49Q1022.5 0.49 1022.5-7.06L1022.5-7.06 1022.5-22.02 1018.16-22.02 1018.16-26.42 1022.5-26.42 1022.5-32.84ZM1059.55 0L1059.4-2.59Q1056.79 0.49 1051.98 0.49L1051.98 0.49Q1047.68 0.49 1045.47-2.03 1043.26-4.54 1043.26-9.3L1043.26-9.3 1043.26-26.42 1049.19-26.42 1049.19-9.38Q1049.19-4.35 1053.37-4.35L1053.37-4.35Q1057.69-4.35 1059.2-7.45L1059.2-7.45 1059.2-26.42 1065.14-26.42 1065.14 0 1059.55 0ZM1090.8-26.56L1090.77-21Q1089.6-21.19 1088.36-21.19L1088.36-21.19Q1084.28-21.19 1082.86-18.07L1082.86-18.07 1082.86 0 1076.93 0 1076.93-26.42 1082.6-26.42 1082.74-23.46Q1084.89-26.9 1088.7-26.9L1088.7-26.9Q1089.97-26.9 1090.8-26.56L1090.8-26.56ZM1111.46 0.49L1111.46 0.49Q1105.82 0.49 1102.31-3.06 1098.81-6.62 1098.81-12.52L1098.81-12.52 1098.81-13.26Q1098.81-17.21 1100.34-20.32 1101.86-23.44 1104.62-25.17 1107.38-26.9 1110.77-26.9L1110.77-26.9Q1116.17-26.9 1119.11-23.46 1122.05-20.02 1122.05-13.72L1122.05-13.72 1122.05-11.33 1104.79-11.33Q1105.06-8.06 1106.98-6.15 1108.89-4.25 1111.8-4.25L1111.8-4.25Q1115.88-4.25 1118.44-7.54L1118.44-7.54 1121.64-4.49Q1120.05-2.12 1117.4-0.82 1114.75 0.49 1111.46 0.49ZM1110.75-22.14L1110.75-22.14Q1108.31-22.14 1106.81-20.43 1105.31-18.73 1104.89-15.67L1104.89-15.67 1116.19-15.67 1116.19-16.11Q1116-19.09 1114.61-20.62 1113.22-22.14 1110.75-22.14Z" opacity="1" transform="matrix(1,0,0,1,0,0)" fill="#ffc78b" class="slogan-text-1" data-fill-palette-color="secondary" id="text-1"></path></svg></g></svg></g></svg></g></svg></g><g><svg viewBox="0 0 293.84771474300396 165.86071009938445" height="165.86071009938445" width="293.84771474300396"><g><svg xmlns="http://www.w3.org/2000/svg" xmlns:xlink="http://www.w3.org/1999/xlink" version="1.1" x="0" y="0" viewBox="0 0 90 50.800000000000004" enable-background="new 0 0 90 50.8" xml:space="preserve" width="293.84771474300396" height="165.86071009938445" class="icon-icon-0" data-fill-palette-color="accent" id="icon-0"><g fill="#ffc78b" data-fill-palette-color="accent"><g fill="#ffc78b" data-fill-palette-color="accent"><path fill-rule="evenodd" clip-rule="evenodd" d="M80 2.3C80 1 78.9 0 77.6 0H12.3C11 0 10 1 10 2.3v44.3h70V2.3zM44.6 0.8c0.7 0 1.2 0.6 1.2 1.3 0 0.7-0.6 1.3-1.2 1.3-0.7 0-1.2-0.6-1.2-1.3C43.3 1.4 43.9 0.8 44.6 0.8zM75.8 42.5H14.2V4.2h61.6V42.5zM52 47.5c-0.1 0.6-0.5 0.8-1.1 0.8H39.1c-0.6 0-1-0.2-1.1-0.8H0v1.6c0 0.9 6.3 1.7 14 1.7h62c7.7 0 14-0.8 14-1.7v-1.6H52zM60.8 22.2l-11.6-4.9v3.2l8 3.1-8 3.1v3.2l11.6-4.9V22.2zM43.2 32c0.3 0 0.5-0.1 0.7-0.2 0.2-0.1 0.3-0.3 0.4-0.6 0.1-0.2 0.2-0.6 0.3-1l3.1-12.9c0.2-0.6 0.2-1 0.2-1.3 0-0.3-0.1-0.6-0.3-0.7C47.4 15 47.1 15 46.8 15c-0.4 0-0.7 0.1-0.9 0.4-0.1 0.3-0.3 0.7-0.5 1.4l-3.1 12.9c-0.1 0.7-0.2 1.1-0.2 1.3C42.1 31.6 42.4 32 43.2 32zM40.8 26.6l-8-3.1 8-3v-3.2l-11.7 4.9v2.7l11.7 4.9V26.6z" fill="#ffc78b" data-fill-palette-color="accent"></path></g></g></svg></g></svg></g></svg></g></svg></g><defs></defs></svg><rect width="395.52" height="94.06340395631993" fill="none" stroke="none" visibility="hidden"></rect></g></svg></g></svg>