<svg xmlns="http://www.w3.org/2000/svg" xmlns:xlink="http://www.w3.org/1999/xlink" width="412.12" height="178.839" viewBox="0 0 412.12 178.839">
  <defs>
    <filter id="text-0" x="0" y="129.046" width="412.12" height="46.85" filterUnits="userSpaceOnUse">
      <feOffset dy="3" input="SourceAlpha"/>
      <feGaussianBlur stdDeviation="3" result="blur"/>
      <feFlood flood-opacity="0.161"/>
      <feComposite operator="in" in2="blur"/>
      <feComposite in="SourceGraphic"/>
    </filter>
    <filter id="Path_36598" x="37" y="0" width="338.322" height="135.916" filterUnits="userSpaceOnUse">
      <feOffset dy="3" input="SourceAlpha"/>
      <feGaussianBlur stdDeviation="3" result="blur-2"/>
      <feFlood flood-opacity="0.161"/>
      <feComposite operator="in" in2="blur-2"/>
      <feComposite in="SourceGraphic"/>
    </filter>
    <filter id="Path_36601" x="39.654" y="128.147" width="50.691" height="50.691" filterUnits="userSpaceOnUse">
      <feOffset dy="3" input="SourceAlpha"/>
      <feGaussianBlur stdDeviation="3" result="blur-3"/>
      <feFlood flood-opacity="0.161"/>
      <feComposite operator="in" in2="blur-3"/>
      <feComposite in="SourceGraphic"/>
    </filter>
  </defs>
  <g id="Group_4052" data-name="Group 4052" transform="translate(5453 -9495)">
    <g id="Group_4050" data-name="Group 4050">
      <g transform="matrix(1, 0, 0, 1, -5453, 9495)" filter="url(#text-0)">
        <path id="text-0-2" data-name="text-0" d="M4-3.4V-25.3l5.85-3.45H20.2v5.65H10.5V-5.85H20V0H9.85ZM38.65-9.3h-6.5v3.45h-9.5V0H32.8l5.85-3.4Zm-6.5-10.3h6.5v-5.7L32.8-28.75H22.45v5.65h9.7ZM60.4-13.992h0v1.053L52.9-16.1l7.5,3.157h0v-1.053h0v0Zm0,2.1L76-18.55,60.4-11.888v0L62.2-5.4l-1.8-6.488v0ZM113.8-28.8V0H100.2V-5.25h7.3v-12H100V-21.9h7.5v-6.9ZM84-3.45v-15l5.7-3.45h8.1v4.65H90.09v12h7.5V0H89.7Zm68.99-15.1v5.7l-5.9,3.45h-8v-3.85h7.55v-4.1h-7.55v-4.7h8Zm-6.55,11.6h6.55v3.5L147.09,0h-8V-5.3h7.35Zm-23.65-11.6v15.1L128.69,0h7.95V-5.3h-7.55V-9.4h7.55v-3.85h-7.55v-4.1h7.55v-4.7h-7.95ZM161.99,0V-21.85h6.25v2.15l7.5-2.15v4.65h-7.5V0Zm22.5-15.05V-19.1l-6.5-2.75v6.8Zm20.5-13.7h16v5.9h-9.7v5.65h9.7v5.85h-9.7V0h-6.3Zm34.45,5.9h0v-5.9h-16v5.9Zm-7.9,11.5h0V-17.2h-8.1v5.85Zm37.19-10.5V0h-6.25V-2.25L254.98,0V-5.25h7.5v-16.6Zm-29.8,0v18.4L244.58,0h8.1V-5.25h-7.45v-16.6ZM307.53-9.7v6.25L301.83,0h-8.05V-5.25h7.7V-9.3h-7.55v-3.9h7.9Zm-29.8-3.05V-18.4l5.7-3.45h8.1v4.65h-7.5v4h7.5v3.9h-8.1Zm0,5.8h6.3v1.7h7.5V0h-8.1l-5.7-3.45Zm29.8-8.1h-6.25V-17.2h-7.5v-4.65h8.05l5.7,3.45Zm8-6.95h6.3V.05h-6.3Zm6.2-6.7v4.65h-6.2V-28.7Zm8.1,25.2V-18.55L335.68-22h7.9v4.7h-7.5V-5.4h7.5V-.05h-7.9Zm29.35,0V-18.55L353.33-22h-7.95v4.7h7.55V-5.4h-7.55V-.05h7.95Zm8.99,3.45V-22h6.35v2.15l7.4-2.15v4.7h-7.4V-.05Zm29.95,0v-18.5L392.22-22h-7.9v4.7h7.55V-.05Z" transform="translate(5 163.85)" fill="#fff"/>
      </g>
      <g transform="matrix(1, 0, 0, 1, -5453, 9495)" filter="url(#Path_36598)">
        <path id="Path_36598-2" data-name="Path 36598" d="M16.406-13.945v-89.822L40.4-117.916h42.45v23.173H43.065v70.75H82.029V0H40.4Zm142.115-24.2H131.861v14.15H92.9V0h41.63l23.993-13.945ZM131.861-80.388h26.659v-23.378l-23.993-14.15H92.077v23.173h39.784Zm63.572-37.528h65.623v24.2H221.273v23.173h39.784v23.993H221.273V0H195.434Zm141.295,24.2h0v-24.2H271.105v24.2Zm-32.4,47.167h0V-70.545H271.105v23.993Z" transform="translate(29.59 123.92)" fill="#fff"/>
      </g>
      <g id="Group_4049" data-name="Group 4049" transform="translate(-5325.618 9490.01)">
        <g id="Group_4048" data-name="Group 4048" transform="translate(10.618 8.079)">
          <g id="Group_4047" data-name="Group 4047">
            <g id="icon-0">
              <path id="Path_36603" data-name="Path 36603" d="M118.352,48.186c-.507-9.046-7.963-35.607-34.642-38.845A141.217,141.217,0,0,0,66.97,8.079c-16.017,0-27.048,5.2-36.881,17.408-11.162,13.846-8.3,25.65-6.4,33.46.717,2.949,1.333,5.5.715,6.736C21.792,70.9,12.916,83.57,12.812,83.716c-2.11,3.124-2.679,5.4-1.789,7.154,1.353,2.669,5.593,2.835,9.692,2.991,2.818.111,6.011.235,6.951,1.222,1.979,2.083,2.212,8.631,2.38,13.415.119,3.349.213,5.994.754,7.508.329.923,1.212,2.019,3.555,2.019a28.492,28.492,0,0,0,5.682-.933c3.451-.777,7.693-1.593,10.4-.92a4.117,4.117,0,0,1,2.667,1.959c1.962,3.3.477,9.17.465,9.227a1.239,1.239,0,0,0,1.2,1.549h50.875a1.245,1.245,0,0,0,.977-.51,1.278,1.278,0,0,0,.2-1.1c-.012-.049-.322-1.229-.322-6.55a30.175,30.175,0,0,0-.408-4.287c-.7-4.9-1.563-10.993,4.124-23.7,1.259-2.81,2.365-5.086,3.327-7.067C118.416,75.644,119.727,72.945,118.352,48.186Zm-58.138,28.3A1.235,1.235,0,1,1,58.5,78.262l-17.524-16.9a.137.137,0,0,1-.012-.02s-.012,0-.017-.012a1.051,1.051,0,0,1-.121-.193,1.182,1.182,0,0,1-.131-.2,1.288,1.288,0,0,1-.052-.235.674.674,0,0,1,0-.455,1.11,1.11,0,0,1,.052-.235,150.613,150.613,0,0,0,.252-.4s.012-.007.017-.012.007-.015.012-.02L58.5,42.674a1.237,1.237,0,1,1,1.717,1.781l-16.6,16.013ZM78.856,39.57,63.811,82.2a1.239,1.239,0,0,1-1.168.826,1.281,1.281,0,0,1-.413-.069,1.238,1.238,0,0,1-.754-1.578l15.045-42.63a1.249,1.249,0,0,1,1.578-.754A1.236,1.236,0,0,1,78.856,39.57ZM99.7,60.683a1.5,1.5,0,0,1-.052.255,1.44,1.44,0,0,1-.111.171,1.122,1.122,0,0,1-.141.223c-.007.007-.017.007-.025.015a.051.051,0,0,1-.01.015l-17.524,16.9a1.234,1.234,0,1,1-1.714-1.776l16.6-16.015L80.122,44.46a1.236,1.236,0,1,1,1.714-1.781l17.524,16.9s.007.012.012.017a.139.139,0,0,1,.02.012,1.353,1.353,0,0,1,.121.188,1.323,1.323,0,0,1,.134.205,1.231,1.231,0,0,1,.049.23,1.118,1.118,0,0,1,.042.235A1.537,1.537,0,0,1,99.7,60.683Z" transform="translate(-10.618 -8.079)" fill="#ffc78b"/>
            </g>
          </g>
        </g>
      </g>
    </g>
    <g transform="matrix(1, 0, 0, 1, -5453, 9495)" filter="url(#Path_36601)">
      <path id="Path_36601-2" data-name="Path 36601" d="M27.739,17.869l-.084.084L22.225,21.3a1.021,1.021,0,0,1-1.072-1.739l5.171-3.188a.112.112,0,0,0,0-.058l-5.171-3.188a1.021,1.021,0,1,1,1.072-1.739l5.43,3.348.084.084A2.158,2.158,0,0,1,27.739,17.869ZM13.98,25.394a1.022,1.022,0,1,1-1.908-.729L18.712,7.3a1.022,1.022,0,1,1,1.908.729l-3.027,7.917ZM11,21.454a1.016,1.016,0,0,1-.535-.152l-5.43-3.348-.084-.084a2.158,2.158,0,0,1,0-3.047l.084-.084,5.43-3.348a1.021,1.021,0,0,1,1.072,1.739L6.368,16.317a.112.112,0,0,0,0,.058l5.171,3.188A1.022,1.022,0,0,1,11,21.454ZM16.346,0A16.346,16.346,0,1,0,32.691,16.346,16.346,16.346,0,0,0,16.346,0Z" transform="translate(48.65 134.15)" fill="#fff" fill-rule="evenodd"/>
    </g>
  </g>
</svg>
